  <svg width="720" height="588" viewBox="0 0 720 588" fill="none" xmlns="http://www.w3.org/2000/svg">
    
          <linearGradient id="gr-shimmer" x1="0%" x2="100%" gradientUnits="userSpaceOnUse">
    
    <stop id="stop1" offset="0%" stop-color="#F1E7FF">
    <animate id="animate1" attributeName="stop-color" values="#F1E7FF; #F1E7FF; #F1E7FF; #FFF5EC; #E7FFFB; #FFF5EC; #F1E7FF; #F1E7FF; #F1E7FF;" dur="3s" repeatCount="indefinite"></animate>
    </stop>
    
        <stop id="stop2" offset="50%" stop-color="#FFF5EC">
    <animate id="animate2" attributeName="stop-color" values="#FFF5EC; #FFF5EC; #FFF5EC; #E7FFFB; #F1E7FF; #E7FFFB; #FFF5EC; #FFF5EC; #FFF5EC;" dur="3s" repeatCount="indefinite"></animate>
    </stop>
    
        <stop id="stop3" offset="100%" stop-color="#E7FFFB">
    <animate id="animate3" attributeName="stop-color" values="#E7FFFB; #E7FFFB; #E7FFFB; #F1E7FF; #FFF5EC; #F1E7FF; #E7FFFB; #E7FFFB; #E7FFFB;" dur="3s" repeatCount="indefinite"></animate>
    </stop>

  </linearGradient>
    
      <g id="logo" fill="url('#gr-shimmer')">
<path fill-rule="evenodd" clip-rule="evenodd" d="M441.715 1.19855C430.675 -3.18475 418.892 5.02237 418.893 16.7028L418.899 66.8393H380.387C351.779 38.4641 317.565 16.2084 279.759 1.19817C268.712 -3.18758 256.937 5.0288 256.937 16.7006V120.898C236.053 121.495 215.439 125.897 196.111 133.903C192.779 135.283 189.496 136.766 186.266 138.349V138.347C176.693 143.349 167.677 149.4 159.39 156.406C158.093 157.503 156.816 158.621 155.56 159.76C151.543 163.4 145.336 163.096 141.695 159.08C138.054 155.063 138.359 148.856 142.375 145.215C143.799 143.925 145.246 142.658 146.715 141.415C158.08 131.807 170.653 123.784 184.09 117.536C184.801 117.206 185.53 116.967 186.266 116.817V70.7689C186.266 44.2063 164.733 22.6731 138.17 22.6731C111.607 22.6731 90.0743 44.2063 90.0743 70.7689L90.0745 292.598L1.64285 407.56C-2.32936 412.724 1.35192 420.2 7.86684 420.2H203.027C206.074 420.2 208.949 418.784 210.807 416.369L256.937 356.399V557.616H123.447C121.279 557.616 119.521 555.859 119.521 553.69V439.831C119.521 437.12 117.323 434.923 114.613 434.923H94.982C92.2715 434.923 90.0743 437.12 90.0743 439.831V571.849C90.0743 580.252 96.8861 587.063 105.288 587.063H614.712C623.114 587.063 629.925 580.251 629.925 571.849V439.831C629.925 437.12 627.728 434.923 625.018 434.923H605.387C602.676 434.923 600.479 437.12 600.479 439.831V557.616H286.384V356.399L332.514 416.369C334.372 418.784 337.247 420.2 340.294 420.2H712.133C718.648 420.2 722.329 412.724 718.357 407.56L629.925 292.598L629.925 277.875C629.925 217.613 611.678 158.763 577.587 109.071C544.015 60.135 496.663 23.0148 441.715 1.19855ZM355.092 174.322C355.092 152.638 372.67 135.06 394.354 135.06C416.038 135.06 433.616 152.638 433.616 174.322V223.89C433.616 234.732 424.827 243.521 413.985 243.521C403.143 243.521 394.354 234.732 394.354 223.89V184.628C394.354 174.558 401.937 166.259 411.704 165.128C408.407 158.919 401.874 154.691 394.354 154.691C383.512 154.691 374.723 163.48 374.723 174.322V193.953C374.723 199.374 370.329 203.768 364.908 203.768C359.487 203.768 355.092 199.374 355.092 193.953V174.322ZM477.786 174.322C477.786 152.638 495.364 135.06 517.048 135.06C538.731 135.06 556.309 152.638 556.309 174.322V223.89C556.309 234.732 547.52 243.521 536.678 243.521C525.837 243.521 517.048 234.732 517.048 223.89V184.628C517.048 174.558 524.63 166.259 534.397 165.128C531.1 158.919 524.568 154.691 517.048 154.691C506.206 154.691 497.417 163.48 497.417 174.322V193.953C497.417 199.374 493.022 203.768 487.601 203.768C482.18 203.768 477.786 199.374 477.786 193.953V174.322ZM101.627 325.876C103.485 323.46 106.36 322.045 109.407 322.045H242.227C243.855 322.045 244.776 323.914 243.783 325.205L196.308 386.922C194.45 389.338 191.575 390.753 188.528 390.753H55.7082C54.0794 390.753 53.1591 388.884 54.1522 387.593L101.627 325.876ZM301.095 322.045C299.466 322.045 298.546 323.914 299.539 325.205L347.014 386.922C348.872 389.338 351.746 390.753 354.794 390.753H664.292C665.921 390.753 666.841 388.884 665.848 387.593L618.373 325.876C616.515 323.46 613.64 322.045 610.593 322.045H301.095Z" />
<path d="M215.712 484C210.291 484 205.896 488.395 205.896 493.816C205.896 504.658 197.107 513.447 186.265 513.447C175.424 513.447 166.634 504.658 166.634 493.816C166.634 488.395 162.24 484 156.819 484C151.398 484 147.004 488.395 147.004 493.816C147.004 515.499 164.582 533.078 186.265 533.078C207.949 533.078 225.527 515.499 225.527 493.816C225.527 488.395 221.133 484 215.712 484Z" />
<path d="M156.82 439.831C164.951 439.831 171.543 446.422 171.543 454.554C171.543 462.685 164.951 469.277 156.82 469.277C148.688 469.277 142.096 462.685 142.096 454.554C142.096 446.422 148.688 439.831 156.82 439.831Z" />
<path d="M230.436 454.554C230.436 446.422 223.844 439.831 215.712 439.831C207.581 439.831 200.989 446.422 200.989 454.554C200.989 462.685 207.581 469.277 215.712 469.277C223.844 469.277 230.436 462.685 230.436 454.554Z" />
    </g>
</svg>